<svg width="19" height="19" viewBox="0 0 19 19" fill="none" xmlns="http://www.w3.org/2000/svg">
<path d="M9.50008 0.166666C10.7378 0.166666 11.9247 0.658331 12.7999 1.5335C13.6751 2.40867 14.1667 3.59566 14.1667 4.83333C14.1667 6.07101 13.6751 7.25799 12.7999 8.13316C11.9247 9.00833 10.7378 9.5 9.50008 9.5C8.2624 9.5 7.07542 9.00833 6.20025 8.13316C5.32508 7.25799 4.83341 6.07101 4.83341 4.83333C4.83341 3.59566 5.32508 2.40867 6.20025 1.5335C7.07542 0.658331 8.2624 0.166666 9.50008 0.166666ZM9.50008 11.8333C14.6567 11.8333 18.8334 13.9217 18.8334 16.5V18.8333H0.166748V16.5C0.166748 13.9217 4.34341 11.8333 9.50008 11.8333Z" fill="#1E1E1E"/>
</svg>
